<?xml version="1.0"?>
<!DOCTYPE svg PUBLIC "-//W3C//DTD SVG 1.0//EN" "http://www.w3.org/TR/2001/REC-SVG-20010904/DTD/svg10.dtd">
<svg xmlns="http://www.w3.org/2000/svg" xmlns:xlink="http://www.w3.org/1999/xlink" xmlns:sodipodi="http://sodipodi.sourceforge.net/DTD/sodipodi-0.dtd" xmlns:inkscape="http://www.inkscape.org/namespaces/inkscape" xmlns:realworld="http://www.rw-designer.com/export-svg" width="243px" height="236px">
  <g inkscape:groupmode="layer" inkscape:label="layer 0">
    <rect fill="#1e1e1e" height="59.1698" width="79.1386" x="87.2197" y="139.623" />
    <rect fill="#1e1e1e" height="109.718" width="211.13" x="14.331" y="13.7289" />
    <rect fill="#434343" height="13.6544" width="212.736" x="13.275" y="13.6938" />
    <rect fill="#2b3731" height="19.5911" width="213.072" x="13.562" y="27.4133" />
    <rect fill="none" height="117.111" realworld:stroke-pos="-1" rx="13.0252" ry="13.0252" stroke="#000000" stroke-linejoin="round" stroke-width="5.00967" width="220.162" x="9.716" y="9.4123" />
    <rect fill="#3f4f47" height="13.4595" rx="5.00967" ry="5.00967" width="73.9712" x="80.9594" y="30.9909" />
    <path d="M 96.5173 68.2674L 103.53 68.2674 M 104.531 68.2674L 105.533 68.2674 M 106.535 68.2674L 108.538 68.2674 M 110.542 68.2674L 113.547 68.2674 M 114.549 68.2674L 116.552 68.2674 M 117.554 68.2674L 119.558 68.2674 M 122.563 68.2674L 124.566 68.2674 M 126.57 68.2674L 133.582 68.2674 M 96.5173 69.2695L 97.519 69.2695 M 102.528 69.2695L 103.53 69.2695 M 107.537 69.2695L 108.538 69.2695 M 110.542 69.2695L 111.544 69.2695 M 112.545 69.2695L 113.547 69.2695 M 114.549 69.2695L 117.554 69.2695 M 121.561 69.2695L 122.563 69.2695 M 123.565 69.2695L 124.566 69.2695 M 126.57 69.2695L 127.572 69.2695 M 132.58 69.2695L 133.582 69.2695 M 96.5173 70.2717L 97.519 70.2717 M 98.5208 70.2717L 101.526 70.2717 M 102.528 70.2717L 103.53 70.2717 M 105.533 70.2717L 106.535 70.2717 M 108.538 70.2717L 109.54 70.2717 M 114.549 70.2717L 115.551 70.2717 M 116.552 70.2717L 118.556 70.2717 M 122.563 70.2717L 123.565 70.2717 M 124.566 70.2717L 125.568 70.2717 M 126.57 70.2717L 127.572 70.2717 M 128.573 70.2717L 131.579 70.2717 M 132.58 70.2717L 133.582 70.2717 M 96.5173 71.2738L 97.519 71.2738 M 98.5208 71.2738L 101.526 71.2738 M 102.528 71.2738L 103.53 71.2738 M 104.531 71.2738L 106.535 71.2738 M 108.538 71.2738L 110.542 71.2738 M 111.544 71.2738L 112.545 71.2738 M 114.549 71.2738L 115.551 71.2738 M 122.563 71.2738L 125.568 71.2738 M 126.57 71.2738L 127.572 71.2738 M 128.573 71.2738L 131.579 71.2738 M 132.58 71.2738L 133.582 71.2738 M 96.5173 72.2759L 97.519 72.2759 M 98.5208 72.2759L 101.526 72.2759 M 102.528 72.2759L 103.53 72.2759 M 106.535 72.2759L 107.537 72.2759 M 108.538 72.2759L 111.544 72.2759 M 113.547 72.2759L 116.552 72.2759 M 117.554 72.2759L 118.556 72.2759 M 120.559 72.2759L 124.566 72.2759 M 126.57 72.2759L 127.572 72.2759 M 128.573 72.2759L 131.579 72.2759 M 132.58 72.2759L 133.582 72.2759 M 96.5173 73.278L 97.519 73.278 M 102.528 73.278L 103.53 73.278 M 109.54 73.278L 110.542 73.278 M 111.544 73.278L 112.545 73.278 M 113.547 73.278L 114.549 73.278 M 115.551 73.278L 116.552 73.278 M 119.558 73.278L 120.559 73.278 M 122.563 73.278L 125.568 73.278 M 126.57 73.278L 127.572 73.278 M 132.58 73.278L 133.582 73.278 M 96.5173 74.2801L 103.53 74.2801 M 104.531 74.2801L 105.533 74.2801 M 106.535 74.2801L 107.537 74.2801 M 108.538 74.2801L 109.54 74.2801 M 110.542 74.2801L 111.544 74.2801 M 112.545 74.2801L 113.547 74.2801 M 114.549 74.2801L 115.551 74.2801 M 116.552 74.2801L 117.554 74.2801 M 118.556 74.2801L 119.558 74.2801 M 120.559 74.2801L 121.561 74.2801 M 122.563 74.2801L 123.565 74.2801 M 124.566 74.2801L 125.568 74.2801 M 126.57 74.2801L 133.582 74.2801 M 106.535 75.2822L 107.537 75.2822 M 108.538 75.2822L 109.54 75.2822 M 112.545 75.2822L 113.547 75.2822 M 117.554 75.2822L 118.556 75.2822 M 119.558 75.2822L 120.559 75.2822 M 123.565 75.2822L 124.566 75.2822 M 98.5208 76.2843L 99.5226 76.2843 M 100.524 76.2843L 103.53 76.2843 M 104.531 76.2843L 107.537 76.2843 M 108.538 76.2843L 109.54 76.2843 M 111.544 76.2843L 113.547 76.2843 M 123.565 76.2843L 126.57 76.2843 M 129.575 76.2843L 130.577 76.2843 M 132.58 76.2843L 133.582 76.2843 M 97.519 77.2865L 98.5208 77.2865 M 99.5226 77.2865L 101.526 77.2865 M 105.533 77.2865L 106.535 77.2865 M 107.537 77.2865L 108.538 77.2865 M 110.542 77.2865L 112.545 77.2865 M 115.551 77.2865L 116.552 77.2865 M 118.556 77.2865L 122.563 77.2865 M 123.565 77.2865L 124.566 77.2865 M 125.568 77.2865L 128.573 77.2865 M 132.58 77.2865L 133.582 77.2865 M 97.519 78.2886L 98.5208 78.2886 M 99.5226 78.2886L 103.53 78.2886 M 104.531 78.2886L 106.535 78.2886 M 107.537 78.2886L 108.538 78.2886 M 109.54 78.2886L 111.544 78.2886 M 112.545 78.2886L 113.547 78.2886 M 117.554 78.2886L 118.556 78.2886 M 119.558 78.2886L 120.559 78.2886 M 121.561 78.2886L 123.565 78.2886 M 125.568 78.2886L 126.57 78.2886 M 127.572 78.2886L 129.575 78.2886 M 130.577 78.2886L 133.582 78.2886 M 98.5208 79.2907L 101.526 79.2907 M 104.531 79.2907L 106.535 79.2907 M 108.538 79.2907L 110.542 79.2907 M 111.544 79.2907L 112.545 79.2907 M 114.549 79.2907L 117.554 79.2907 M 118.556 79.2907L 119.558 79.2907 M 120.559 79.2907L 124.566 79.2907 M 126.57 79.2907L 127.572 79.2907 M 132.58 79.2907L 133.582 79.2907 M 96.5173 80.2928L 97.519 80.2928 M 98.5208 80.2928L 99.5226 80.2928 M 101.526 80.2928L 104.531 80.2928 M 106.535 80.2928L 107.537 80.2928 M 109.54 80.2928L 113.547 80.2928 M 116.552 80.2928L 117.554 80.2928 M 119.558 80.2928L 123.565 80.2928 M 124.566 80.2928L 127.572 80.2928 M 131.579 80.2928L 133.582 80.2928 M 98.5208 81.2949L 101.526 81.2949 M 107.537 81.2949L 108.538 81.2949 M 111.544 81.2949L 116.552 81.2949 M 117.554 81.2949L 118.556 81.2949 M 121.561 81.2949L 122.563 81.2949 M 125.568 81.2949L 128.573 81.2949 M 130.577 81.2949L 133.582 81.2949 M 96.5173 82.297L 99.5226 82.297 M 100.524 82.297L 101.526 82.297 M 102.528 82.297L 104.531 82.297 M 106.535 82.297L 107.537 82.297 M 109.54 82.297L 111.544 82.297 M 116.552 82.297L 117.554 82.297 M 118.556 82.297L 123.565 82.297 M 124.566 82.297L 127.572 82.297 M 130.577 82.297L 133.582 82.297 M 96.5173 83.2991L 97.519 83.2991 M 98.5208 83.2991L 99.5226 83.2991 M 101.526 83.2991L 102.528 83.2991 M 104.531 83.2991L 107.537 83.2991 M 108.538 83.2991L 109.54 83.2991 M 113.547 83.2991L 117.554 83.2991 M 119.558 83.2991L 122.563 83.2991 M 124.566 83.2991L 125.568 83.2991 M 127.572 83.2991L 128.573 83.2991 M 131.579 83.2991L 132.58 83.2991 M 96.5173 84.3013L 97.519 84.3013 M 99.5226 84.3013L 100.524 84.3013 M 102.528 84.3013L 105.533 84.3013 M 106.535 84.3013L 107.537 84.3013 M 109.54 84.3013L 110.542 84.3013 M 111.544 84.3013L 112.545 84.3013 M 114.549 84.3013L 115.551 84.3013 M 116.552 84.3013L 117.554 84.3013 M 121.561 84.3013L 122.563 84.3013 M 124.566 84.3013L 127.572 84.3013 M 98.5208 85.3034L 99.5226 85.3034 M 101.526 85.3034L 102.528 85.3034 M 104.531 85.3034L 107.537 85.3034 M 108.538 85.3034L 113.547 85.3034 M 114.549 85.3034L 116.552 85.3034 M 120.559 85.3034L 123.565 85.3034 M 126.57 85.3034L 127.572 85.3034 M 131.579 85.3034L 133.582 85.3034 M 97.519 86.3055L 98.5208 86.3055 M 99.5226 86.3055L 100.524 86.3055 M 101.526 86.3055L 106.535 86.3055 M 107.537 86.3055L 110.542 86.3055 M 112.545 86.3055L 116.552 86.3055 M 118.556 86.3055L 119.558 86.3055 M 122.563 86.3055L 123.565 86.3055 M 124.566 86.3055L 125.568 86.3055 M 126.57 86.3055L 127.572 86.3055 M 129.575 86.3055L 133.582 86.3055 M 98.5208 87.3076L 102.528 87.3076 M 105.533 87.3076L 106.535 87.3076 M 108.538 87.3076L 112.545 87.3076 M 113.547 87.3076L 114.549 87.3076 M 115.551 87.3076L 116.552 87.3076 M 119.558 87.3076L 126.57 87.3076 M 127.572 87.3076L 128.573 87.3076 M 129.575 87.3076L 130.577 87.3076 M 131.579 87.3076L 132.58 87.3076 M 96.5173 88.3097L 97.519 88.3097 M 99.5226 88.3097L 100.524 88.3097 M 102.528 88.3097L 103.53 88.3097 M 104.531 88.3097L 106.535 88.3097 M 107.537 88.3097L 109.54 88.3097 M 114.549 88.3097L 115.551 88.3097 M 116.552 88.3097L 117.554 88.3097 M 119.558 88.3097L 120.559 88.3097 M 121.561 88.3097L 122.563 88.3097 M 124.566 88.3097L 127.572 88.3097 M 96.5173 89.3118L 99.5226 89.3118 M 104.531 89.3118L 107.537 89.3118 M 108.538 89.3118L 111.544 89.3118 M 112.545 89.3118L 113.547 89.3118 M 114.549 89.3118L 115.551 89.3118 M 120.559 89.3118L 122.563 89.3118 M 124.566 89.3118L 127.572 89.3118 M 129.575 89.3118L 130.577 89.3118 M 132.58 89.3118L 133.582 89.3118 M 97.519 90.3139L 101.526 90.3139 M 102.528 90.3139L 103.53 90.3139 M 104.531 90.3139L 105.533 90.3139 M 106.535 90.3139L 107.537 90.3139 M 108.538 90.3139L 109.54 90.3139 M 113.547 90.3139L 115.551 90.3139 M 117.554 90.3139L 118.556 90.3139 M 119.558 90.3139L 120.559 90.3139 M 122.563 90.3139L 123.565 90.3139 M 124.566 90.3139L 125.568 90.3139 M 126.57 90.3139L 130.577 90.3139 M 131.579 90.3139L 133.582 90.3139 M 98.5208 91.3161L 100.524 91.3161 M 101.526 91.3161L 102.528 91.3161 M 103.53 91.3161L 104.531 91.3161 M 105.533 91.3161L 106.535 91.3161 M 107.537 91.3161L 109.54 91.3161 M 110.542 91.3161L 115.551 91.3161 M 116.552 91.3161L 117.554 91.3161 M 119.558 91.3161L 120.559 91.3161 M 121.561 91.3161L 124.566 91.3161 M 128.573 91.3161L 129.575 91.3161 M 131.579 91.3161L 132.58 91.3161 M 96.5173 92.3182L 97.519 92.3182 M 102.528 92.3182L 103.53 92.3182 M 104.531 92.3182L 105.533 92.3182 M 106.535 92.3182L 110.542 92.3182 M 111.544 92.3182L 113.547 92.3182 M 118.556 92.3182L 120.559 92.3182 M 122.563 92.3182L 123.565 92.3182 M 124.566 92.3182L 125.568 92.3182 M 126.57 92.3182L 127.572 92.3182 M 132.58 92.3182L 133.582 92.3182 M 98.5208 93.3203L 99.5226 93.3203 M 101.526 93.3203L 102.528 93.3203 M 105.533 93.3203L 107.537 93.3203 M 108.538 93.3203L 109.54 93.3203 M 115.551 93.3203L 116.552 93.3203 M 119.558 93.3203L 120.559 93.3203 M 121.561 93.3203L 123.565 93.3203 M 125.568 93.3203L 127.572 93.3203 M 129.575 93.3203L 131.579 93.3203 M 132.58 93.3203L 133.582 93.3203 M 96.5173 94.3224L 97.519 94.3224 M 99.5226 94.3224L 104.531 94.3224 M 105.533 94.3224L 106.535 94.3224 M 107.537 94.3224L 108.538 94.3224 M 109.54 94.3224L 110.542 94.3224 M 116.552 94.3224L 118.556 94.3224 M 122.563 94.3224L 123.565 94.3224 M 125.568 94.3224L 126.57 94.3224 M 127.572 94.3224L 133.582 94.3224 M 97.519 95.3245L 98.5208 95.3245 M 99.5226 95.3245L 100.524 95.3245 M 101.526 95.3245L 102.528 95.3245 M 104.531 95.3245L 105.533 95.3245 M 106.535 95.3245L 107.537 95.3245 M 109.54 95.3245L 110.542 95.3245 M 111.544 95.3245L 112.545 95.3245 M 116.552 95.3245L 120.559 95.3245 M 121.561 95.3245L 122.563 95.3245 M 123.565 95.3245L 124.566 95.3245 M 125.568 95.3245L 127.572 95.3245 M 128.573 95.3245L 129.575 95.3245 M 132.58 95.3245L 133.582 95.3245 M 96.5173 96.3266L 97.519 96.3266 M 99.5226 96.3266L 100.524 96.3266 M 101.526 96.3266L 103.53 96.3266 M 104.531 96.3266L 108.538 96.3266 M 110.542 96.3266L 113.547 96.3266 M 114.549 96.3266L 115.551 96.3266 M 116.552 96.3266L 118.556 96.3266 M 120.559 96.3266L 122.563 96.3266 M 124.566 96.3266L 129.575 96.3266 M 131.579 96.3266L 132.58 96.3266 M 104.531 97.3287L 106.535 97.3287 M 109.54 97.3287L 110.542 97.3287 M 113.547 97.3287L 118.556 97.3287 M 121.561 97.3287L 125.568 97.3287 M 128.573 97.3287L 129.575 97.3287 M 131.579 97.3287L 133.582 97.3287 M 96.5173 98.3309L 103.53 98.3309 M 110.542 98.3309L 112.545 98.3309 M 114.549 98.3309L 115.551 98.3309 M 116.552 98.3309L 119.558 98.3309 M 120.559 98.3309L 125.568 98.3309 M 126.57 98.3309L 127.572 98.3309 M 128.573 98.3309L 133.582 98.3309 M 96.5173 99.333L 97.519 99.333 M 102.528 99.333L 103.53 99.333 M 104.531 99.333L 106.535 99.333 M 107.537 99.333L 109.54 99.333 M 114.549 99.333L 117.554 99.333 M 118.556 99.333L 122.563 99.333 M 124.566 99.333L 125.568 99.333 M 128.573 99.333L 129.575 99.333 M 131.579 99.333L 132.58 99.333 M 96.5173 100.335L 97.519 100.335 M 98.5208 100.335L 101.526 100.335 M 102.528 100.335L 103.53 100.335 M 104.531 100.335L 105.533 100.335 M 106.535 100.335L 107.537 100.335 M 111.544 100.335L 112.545 100.335 M 113.547 100.335L 114.549 100.335 M 117.554 100.335L 122.563 100.335 M 124.566 100.335L 129.575 100.335 M 131.579 100.335L 133.582 100.335 M 96.5173 101.337L 97.519 101.337 M 98.5208 101.337L 101.526 101.337 M 102.528 101.337L 103.53 101.337 M 105.533 101.337L 109.54 101.337 M 110.542 101.337L 111.544 101.337 M 112.545 101.337L 118.556 101.337 M 119.558 101.337L 121.561 101.337 M 124.566 101.337L 126.57 101.337 M 128.573 101.337L 130.577 101.337 M 131.579 101.337L 133.582 101.337 M 96.5173 102.339L 97.519 102.339 M 98.5208 102.339L 101.526 102.339 M 102.528 102.339L 103.53 102.339 M 104.531 102.339L 105.533 102.339 M 111.544 102.339L 114.549 102.339 M 116.552 102.339L 117.554 102.339 M 118.556 102.339L 121.561 102.339 M 123.565 102.339L 124.566 102.339 M 127.572 102.339L 129.575 102.339 M 130.577 102.339L 131.579 102.339 M 132.58 102.339L 133.582 102.339 M 96.5173 103.341L 97.519 103.341 M 102.528 103.341L 103.53 103.341 M 106.535 103.341L 107.537 103.341 M 108.538 103.341L 110.542 103.341 M 111.544 103.341L 114.549 103.341 M 115.551 103.341L 117.554 103.341 M 120.559 103.341L 122.563 103.341 M 124.566 103.341L 126.57 103.341 M 131.579 103.341L 132.58 103.341 M 96.5173 104.344L 103.53 104.344 M 106.535 104.344L 108.538 104.344 M 109.54 104.344L 114.549 104.344 M 118.556 104.344L 122.563 104.344 M 123.565 104.344L 126.57 104.344 M 127.572 104.344L 129.575 104.344 M 131.579 104.344L 133.582 104.344L 133.582 104.344" fill="none" stroke="#ffffff" stroke-width="1.00193" />
    <rect fill="#1e1e1e" height="22.794" width="79.255" x="87.1235" y="198.437" />
    <rect fill="none" height="170.86" realworld:stroke-pos="-1" rx="13.0252" ry="13.0252" stroke="#000000" stroke-linejoin="round" stroke-width="5.00967" width="85.65" x="84.364" y="55.235" />
    <ellipse cx="126.966" cy="210.577" fill="#ffffff" rx="7.39134" ry="7.39398" />
    <rect fill="#2e2e2e" height="13.2883" width="13.5489" x="91.9166" y="203.562" />
    <rect fill="#febc00" height="1.64653" width="13.298" x="93.2833" y="106.569" />
    <rect fill="#febc00" height="13.3476" width="2.12874" x="92.678" y="94.9832" />
    <rect fill="#febc00" height="1.64653" width="13.4232" x="93.3114" y="63.8496" />
    <rect fill="#febc00" height="13.7861" width="2.12872" x="92.7842" y="63.4809" />
    <rect fill="#febc00" height="1.64654" width="13.4232" x="124.035" y="63.6882" />
    <rect fill="#febc00" height="13.7861" width="2.12872" x="135.461" y="63.9238" />
    <rect fill="#febc00" height="1.64653" width="13.4232" x="122.502" y="106.748" />
    <rect fill="#febc00" height="13.7861" width="2.12874" x="135.43" y="94.864" />
    <rect fill="#febc00" height="7.33494" width="2.12872" x="92.6961" y="82.6139" />
    <rect fill="#febc00" height="7.33494" width="2.12872" x="135.897" y="82.4887" />
    <rect fill="#febc00" height="2.1476" width="8.41446" x="111.532" y="63.2864" />
    <rect fill="#febc00" height="2.1476" width="8.41448" x="110.342" y="106.533" />
    <rect fill="#00afff" height="9.80978" rx="7.01354" ry="7.01354" width="16.6566" x="105.499" y="148.209" />
    <rect fill="#00c9ff" height="18.5246" rx="1.00193" ry="1.00193" width="37.5482" x="105.561" y="151.735" />
    <rect fill="#00afff" height="3.1316" rx="1.00193" ry="1.00193" width="37.9414" x="105.368" y="151.32" />
    <text dominant-baseline="text-before-edge" fill="#ffffff" font-family="PhrasticMedium" font-size="15.029" font-weight="bold" text-anchor="start" x="102.723" y="176.484">lemon</text>
    <text dominant-baseline="text-before-edge" fill="#ffffff" font-family="PhrasticMedium" font-size="15.029" font-weight="bold" text-anchor="start" x="108.642" y="155.202">C:</text>
    <text dominant-baseline="text-before-edge" fill="#2b3731" font-family="PhrasticMedium" font-size="15.029" font-weight="bold" text-anchor="start" x="179.006" y="151.318" />
    <text dominant-baseline="text-before-edge" fill="#ffffff" font-family="BN Machine" font-size="16.031" font-weight="bold" text-anchor="start" x="123.169" y="151.321">\\</text>
  </g>
</svg>
